HIERARCHY
ROOT Hips
{
	OFFSET 0.000000 8.830580 0.000000
	CHANNELS 6 Xposition Yposition Zposition Zrotation Yrotation Xrotation 
	JOINT Spine
	{
		OFFSET 0.000000 0.010000 0.000000
		CHANNELS 3 Zrotation Yrotation Xrotation
		JOINT Spine1
		{
			OFFSET 0.000000 2.459130 0.000000
			CHANNELS 3 Zrotation Yrotation Xrotation
			JOINT Neck
			{
				OFFSET 0.000000 2.484630 0.000000
				CHANNELS 3 Zrotation Yrotation Xrotation
				JOINT Head_virtual
				{
					OFFSET 0.000000 0.000000 0.000000
					CHANNELS 3 Zrotation Yrotation Xrotation
					JOINT Head
					{
						OFFSET 0.000000 0.927525 0.000000
						CHANNELS 3 Zrotation Yrotation Xrotation
						End Site
						{
							OFFSET 0.000000 0.000000 0.000000
						}
					}
				}
				JOINT LeftUpArm_virtual
				{
					OFFSET 0.000000 0.000000 0.000000
					CHANNELS 3 Zrotation Yrotation Xrotation
					JOINT LeftUpArm
					{
						OFFSET 1.248820 0.000000 0.000000
						CHANNELS 3 Zrotation Yrotation Xrotation
						JOINT LeftForeArm
						{
							OFFSET 2.597580 0.000000 0.000000
							CHANNELS 3 Zrotation Yrotation Xrotation
							JOINT LeftHand
							{
								OFFSET 2.455420 0.000000 0.000000
								CHANNELS 3 Zrotation Yrotation Xrotation
								End Site
								{
									OFFSET 0.000000 0.000000 0.000000
								}
							}
						}
					}
				}
				JOINT RightUpArm_virtual
				{
					OFFSET -0.000000 -0.000000 -0.000000
					CHANNELS 3 Zrotation Yrotation Xrotation
					JOINT RightUpArm
					{
						OFFSET -1.248820 -0.000000 -0.000000
						CHANNELS 3 Zrotation Yrotation Xrotation
						JOINT RightForeArm
						{
							OFFSET -2.597580 -0.000000 -0.000000
							CHANNELS 3 Zrotation Yrotation Xrotation
							JOINT RightHand
							{
								OFFSET -2.455420 -0.000000 -0.000000
								CHANNELS 3 Zrotation Yrotation Xrotation
								End Site
								{
									OFFSET 0.000000 0.000000 0.000000
								}
							}
						}
					}
				}
			}
		}
	}
	JOINT LeftUpLeg
	{
		OFFSET 1.271939 0.000000 0.000000
		CHANNELS 3 Zrotation Yrotation Xrotation
		JOINT LeftLowLeg
		{
			OFFSET 0.000000 -4.342910 0.000000
			CHANNELS 3 Zrotation Yrotation Xrotation
			JOINT LeftFoot
			{
				OFFSET 0.000000 -4.487670 0.000000
				CHANNELS 3 Zrotation Yrotation Xrotation
				JOINT LeftToeBase
				{
					OFFSET 0.000000 0.000000 1.515070
					CHANNELS 3 Zrotation Yrotation Xrotation
					End Site
					{
						OFFSET 0.000000 0.000000 0.000000
					}
				}
			}
		}
	}
	JOINT RightUpLeg
	{
		OFFSET -1.271939 0.000000 0.000000
		CHANNELS 3 Zrotation Yrotation Xrotation
		JOINT RightLowLeg
		{
			OFFSET 0.000000 -4.342910 0.000000
			CHANNELS 3 Zrotation Yrotation Xrotation
			JOINT RightFoot
			{
				OFFSET 0.000000 -4.487670 0.000000
				CHANNELS 3 Zrotation Yrotation Xrotation
				JOINT RightToeBase
				{
					OFFSET 0.000000 0.000000 1.515070
					CHANNELS 3 Zrotation Yrotation Xrotation
					End Site
					{
						OFFSET 0.000000 0.000000 0.000000
					}
				}
			}
		}
	}
}
MOTION
Frames: 17
Frame Time: 0.041667
-19.108796 9.207772 44.008444 -174.898330 0.494878 -173.688415 3.441119 -1.856009 -9.601695 0.089673 -2.332060 6.465438 0.000000 0.000000 0.000000 2.056565 3.384157 0.336403 2.556295 4.119817 -46.974592 -2.105330 11.736500 -1.138560 -14.303400 -2.658810 -30.112400 0.000000 -19.845699 0.000000 32.433998 8.050560 28.109301 8.995680 -10.008800 0.172712 9.701180 -0.383596 -38.783100 0.000000 19.671000 0.000000 -18.666700 -1.661930 26.853901 3.665102 3.199259 -6.464848 0.000000 0.000000 7.786810 11.379333 0.981646 5.576101 0.000000 0.000000 -33.248301 5.836754 4.458054 -4.305571 0.000000 0.000000 6.657150 5.502087 -8.020888 10.358638 0.000000 0.000000 -27.592400 
-19.107996 9.207698 44.008504 -174.893337 0.498932 -173.667387 3.450499 -1.812437 -9.616367 0.044594 -2.292192 6.454957 0.000000 0.000000 0.000000 2.094877 3.358608 0.374671 2.576270 4.129687 -46.969320 -2.091880 11.714000 -1.144510 -14.359700 -2.746230 -30.301399 0.000000 -19.877300 0.000000 32.390900 8.029650 28.031500 9.027410 -10.072400 0.181256 9.718180 -0.374370 -38.835701 0.000000 19.722099 0.000000 -18.672001 -1.745330 26.868401 3.675039 3.193810 -6.492127 0.000000 0.000000 7.802000 11.364972 0.988144 5.564920 0.000000 0.000000 -33.238800 5.844265 4.438098 -4.324682 0.000000 0.000000 6.652020 5.501139 -7.992453 10.362826 0.000000 0.000000 -27.585300 
-19.107645 9.207650 44.008257 -174.894794 0.499850 -173.692609 3.440083 -1.801437 -9.610075 0.034433 -2.278893 6.488764 0.000000 0.000000 0.000000 2.075586 3.379634 0.385594 2.608685 4.118168 -46.962800 -2.105850 11.702100 -1.149600 -14.399900 -2.787990 -30.386900 0.000000 -19.873899 0.000000 32.337399 7.921340 28.091600 9.053800 -10.074200 0.175473 9.706230 -0.385600 -38.819698 0.000000 19.725300 0.000000 -18.681400 -1.677000 26.883200 3.677682 3.187360 -6.470282 0.000000 0.000000 7.812070 11.362803 0.993019 5.562378 0.000000 0.000000 -33.252800 5.842855 4.471153 -4.297734 0.000000 0.000000 6.650100 5.518412 -8.009089 10.357728 0.000000 0.000000 -27.578100 
-19.107472 9.207537 44.007991 -174.891177 0.491007 -173.702348 3.455733 -1.797911 -9.626084 -0.012033 -2.279989 6.538408 0.000000 0.000000 0.000000 2.090791 3.379171 0.359846 2.607033 4.139585 -46.932275 -2.131640 11.687300 -1.135590 -14.359900 -2.790840 -30.294201 0.000000 -19.871300 0.000000 32.307400 8.001040 28.098101 9.067910 -10.079000 0.154161 9.724150 -0.371682 -38.748402 0.000000 19.730900 0.000000 -18.660601 -1.689190 26.857000 3.686795 3.150315 -6.457730 0.000000 0.000000 7.806150 11.349116 1.011072 5.559858 0.000000 0.000000 -33.218300 5.847891 4.474517 -4.276729 0.000000 0.000000 6.631450 5.537839 -8.016405 10.359947 0.000000 0.000000 -27.593600 
-19.107119 9.207651 44.007606 -174.893906 0.476188 -173.703492 3.445960 -1.801143 -9.650494 -0.026352 -2.280674 6.588462 0.000000 0.000000 0.000000 2.057994 3.423717 0.369168 2.645376 4.137685 -46.941783 -2.151260 11.666700 -1.091250 -14.336100 -2.792710 -30.135300 0.000000 -19.824400 0.000000 32.293701 7.983770 28.127399 9.084450 -10.063800 0.137359 9.711640 -0.384946 -38.631802 0.000000 19.701401 0.000000 -18.575399 -1.663890 26.825300 3.687361 3.148668 -6.446052 0.000000 0.000000 7.781950 11.350538 0.995432 5.573794 0.000000 0.000000 -33.221600 5.851216 4.438384 -4.258213 0.000000 0.000000 6.605570 5.519086 -8.005889 10.368677 0.000000 0.000000 -27.573300 
-19.106633 9.207493 44.007563 -174.898465 0.461016 -173.691499 3.425345 -1.807918 -9.679555 -0.023945 -2.281781 6.617751 0.000000 0.000000 0.000000 2.043313 3.439598 0.358427 2.661022 4.132338 -46.916631 -2.154520 11.666900 -1.059040 -14.346800 -2.827140 -29.987700 0.000000 -19.760599 0.000000 32.365898 7.985880 28.040001 9.068720 -10.036200 0.151360 9.744080 -0.402037 -38.655899 0.000000 19.712900 0.000000 -18.549000 -1.719660 26.864099 3.685220 3.169666 -6.449128 0.000000 0.000000 7.757250 11.353065 0.959490 5.575755 0.000000 0.000000 -33.215500 5.854524 4.398038 -4.248704 0.000000 0.000000 6.565390 5.493636 -7.998282 10.377219 0.000000 0.000000 -27.566600 
-19.106254 9.207315 44.007955 -174.898985 0.459321 -173.699745 3.401755 -1.800626 -9.673463 -0.010887 -2.268381 6.617759 0.000000 0.000000 0.000000 2.037782 3.438764 0.370869 2.663514 4.120676 -46.902659 -2.156700 11.675600 -1.067200 -14.404300 -2.887530 -30.030100 0.000000 -19.731300 0.000000 32.351700 7.993140 28.146601 9.048800 -10.049500 0.158352 9.772100 -0.382174 -38.667099 0.000000 19.728701 0.000000 -18.629900 -1.799860 26.897699 3.687397 3.191553 -6.441914 0.000000 0.000000 7.753600 11.351051 0.933351 5.571972 0.000000 0.000000 -33.261700 5.858713 4.384244 -4.252506 0.000000 0.000000 6.587510 5.498203 -7.991422 10.363890 0.000000 0.000000 -27.564000 
-19.105884 9.207370 44.008190 -174.898781 0.443896 -173.717046 3.384931 -1.799768 -9.664233 -0.004039 -2.263146 6.632737 0.000000 0.000000 0.000000 2.049243 3.426591 0.364303 2.625244 4.129649 -46.859410 -2.161560 11.678400 -1.084050 -14.447400 -2.942670 -30.061600 0.000000 -19.698799 0.000000 32.382099 7.963980 28.105499 9.061790 -10.054200 0.128100 9.765910 -0.389886 -38.619701 0.000000 19.757999 0.000000 -18.653999 -1.809870 26.906401 3.690460 3.184261 -6.444742 0.000000 0.000000 7.784040 11.364364 0.933573 5.565351 0.000000 0.000000 -33.252001 5.860099 4.408854 -4.247712 0.000000 0.000000 6.607820 5.505211 -8.014646 10.361801 0.000000 0.000000 -27.589800 
-19.105709 9.207318 44.008607 -174.895981 0.421422 -173.765581 3.380730 -1.807656 -9.625306 -0.013670 -2.270185 6.644449 0.000000 0.000000 0.000000 2.055991 3.416728 0.345296 2.620074 4.126849 -46.803287 -2.174310 11.657400 -1.043990 -14.440600 -2.944230 -30.017799 0.000000 -19.677799 0.000000 32.350800 7.986120 28.040400 9.061310 -10.032300 0.111269 9.790950 -0.406107 -38.590500 0.000000 19.859100 0.000000 -18.618601 -2.006830 26.958799 3.699216 3.146483 -6.425037 0.000000 0.000000 7.826140 11.371574 0.948518 5.556634 0.000000 0.000000 -33.249599 5.862382 4.495826 -4.216969 0.000000 0.000000 6.643870 5.547800 -8.090430 10.330075 0.000000 0.000000 -27.569500 
-19.105986 9.207064 44.009182 -174.902870 0.387092 -173.804752 3.372506 -1.818024 -9.600458 -0.026455 -2.278572 6.684389 0.000000 0.000000 0.000000 2.030198 3.442399 0.307715 2.648623 4.118780 -46.783159 -2.193250 11.639000 -1.034350 -14.434100 -2.942040 -29.990900 0.000000 -19.666000 0.000000 32.325401 7.932530 28.154900 9.061020 -10.047900 0.095836 9.807610 -0.372842 -38.544102 0.000000 19.889700 0.000000 -18.607500 -2.110140 26.926701 3.698722 3.067493 -6.422731 0.000000 0.000000 7.877750 11.362097 0.985179 5.548362 0.000000 0.000000 -33.236799 5.853251 4.583942 -4.180687 0.000000 0.000000 6.648060 5.598392 -8.176035 10.295964 0.000000 0.000000 -27.553000 
-19.106279 9.206747 44.009947 -174.906551 0.364010 -173.826968 3.370113 -1.826400 -9.592239 -0.051083 -2.286569 6.730534 0.000000 0.000000 0.000000 2.018659 3.453369 0.272458 2.664118 4.118791 -46.809101 -2.203530 11.635300 -1.020480 -14.428300 -2.938970 -29.981701 0.000000 -19.686100 0.000000 32.340801 7.960680 28.113199 9.081890 -10.043300 0.097866 9.802300 -0.347056 -38.539001 0.000000 19.836201 0.000000 -18.600401 -2.014540 26.830999 3.699282 2.987258 -6.431066 0.000000 0.000000 7.920470 11.359378 1.037829 5.541102 0.000000 0.000000 -33.214199 5.848426 4.647958 -4.169897 0.000000 0.000000 6.668870 5.625961 -8.245341 10.262585 0.000000 0.000000 -27.536600 
-19.106401 9.206635 44.010552 -174.910812 0.365464 -173.834392 3.360440 -1.820322 -9.583802 -0.052654 -2.278186 6.743465 0.000000 0.000000 0.000000 2.010077 3.453818 0.275909 2.676324 4.108352 -46.866921 -2.209120 11.637000 -1.007170 -14.444900 -2.975100 -30.110701 0.000000 -19.660500 0.000000 32.332401 7.934270 28.153200 9.088480 -10.029300 0.149014 9.801440 -0.353526 -38.625500 0.000000 19.841499 0.000000 -18.544300 -1.996790 26.868099 3.696249 2.967309 -6.428355 0.000000 0.000000 7.923210 11.356203 1.053324 5.547740 0.000000 0.000000 -33.235500 5.843052 4.678747 -4.174977 0.000000 0.000000 6.687110 5.624955 -8.271991 10.247455 0.000000 0.000000 -27.535000 
-19.106490 9.206612 44.011309 -174.916747 0.386954 -173.841327 3.344300 -1.807793 -9.577462 -0.061179 -2.261876 6.773983 0.000000 0.000000 0.000000 2.028575 3.434306 0.262742 2.647998 4.121961 -46.905174 -2.239180 11.647600 -1.014200 -14.432300 -2.975280 -30.143700 0.000000 -19.695700 0.000000 32.356201 7.936720 28.058001 9.132630 -10.030500 0.162982 9.760030 -0.332418 -38.527599 0.000000 19.804899 0.000000 -18.617399 -1.843150 26.807899 3.686627 3.002672 -6.410508 0.000000 0.000000 7.900940 11.357198 1.039345 5.556047 0.000000 0.000000 -33.245100 5.834571 4.704397 -4.185345 0.000000 0.000000 6.709080 5.627509 -8.273929 10.241390 0.000000 0.000000 -27.535900 
-19.106468 9.206672 44.012011 -174.910169 0.403935 -173.850396 3.335852 -1.798750 -9.570220 -0.059559 -2.250831 6.787351 0.000000 0.000000 0.000000 2.015919 3.432553 0.259468 2.652025 4.100898 -46.883342 -2.241840 11.652300 -1.007360 -14.443800 -2.984250 -30.146099 0.000000 -19.685301 0.000000 32.396900 7.942070 28.019300 9.154710 -10.008700 0.164822 9.756000 -0.338281 -38.479801 0.000000 19.834700 0.000000 -18.650900 -1.771570 26.800600 3.691930 3.034675 -6.396648 0.000000 0.000000 7.890510 11.353595 1.021235 5.553745 0.000000 0.000000 -33.239500 5.834528 4.780946 -4.193477 0.000000 0.000000 6.731150 5.657082 -8.310638 10.237293 0.000000 0.000000 -27.528400 
-19.106574 9.206507 44.013005 -174.913417 0.412640 -173.837158 3.357591 -1.762020 -9.531619 -0.140607 -2.221902 6.698990 0.000000 0.000000 0.000000 2.084515 3.381320 0.291226 2.635265 4.127533 -46.826565 -2.179370 11.604500 -0.962361 -14.462500 -2.959820 -30.078300 0.000000 -19.690701 0.000000 32.397400 7.931180 28.068501 9.206360 -10.074800 0.195059 9.762570 -0.296665 -38.456001 0.000000 19.847200 0.000000 -18.643299 -1.753250 26.758699 3.685257 3.074775 -6.426350 0.000000 0.000000 7.912580 11.358890 0.990186 5.543020 0.000000 0.000000 -33.241800 5.823656 4.807637 -4.206195 0.000000 0.000000 6.720440 5.694202 -8.307432 10.231405 0.000000 0.000000 -27.520500 
-19.107145 9.206646 44.014256 -174.925800 0.392682 -173.820242 3.295108 -1.816451 -9.557128 -0.056239 -2.258070 6.729900 0.000000 0.000000 0.000000 2.012892 3.425592 0.260679 2.628628 4.085552 -46.753575 -2.216070 11.652100 -0.973665 -14.478400 -2.934340 -29.966801 0.000000 -19.678801 0.000000 32.441399 7.934350 28.020000 9.168410 -10.010200 0.196095 9.770970 -0.265671 -38.476501 0.000000 19.849600 0.000000 -18.633400 -1.754460 26.811399 3.670995 3.035461 -6.478078 0.000000 0.000000 7.955520 11.364201 1.004993 5.552866 0.000000 0.000000 -33.243299 5.800639 4.762086 -4.198348 0.000000 0.000000 6.658560 5.742446 -8.245040 10.253591 0.000000 0.000000 -27.531400 
-19.108272 9.206715 44.016155 -174.937528 0.339308 -173.791913 3.240526 -1.878896 -9.567512 0.000521 -2.304619 6.733702 0.000000 0.000000 0.000000 1.921306 3.515028 0.238554 2.697230 4.053248 -46.736958 -2.220140 11.707600 -1.029150 -14.520200 -2.916940 -29.954000 0.000000 -19.660200 0.000000 32.407902 7.967280 27.997801 9.140810 -9.964930 0.213256 9.791910 -0.227736 -38.497601 0.000000 19.866800 0.000000 -18.648300 -1.773160 26.836300 3.657945 2.942778 -6.565356 0.000000 0.000000 8.023360 11.387286 1.047116 5.563182 0.000000 0.000000 -33.264000 5.776750 4.625157 -4.181902 0.000000 0.000000 6.553870 5.789813 -8.122568 10.288066 0.000000 0.000000 -27.529600 
